<svg width="138" height="106" viewBox="0 0 138 106" fill="none" xmlns="http://www.w3.org/2000/svg">
<path d="M115.62 47.216C115.62 33.4762 104.401 22.2965 90.6118 22.2965C79.2728 22.2965 69.7204 29.8703 66.672 40.1983C62.5934 38.4094 58.0954 37.3951 53.3587 37.3951C37.5094 37.3951 24.2329 48.5311 20.9528 63.3587C9.36111 63.6052 0 73.0589 0 84.6671C0 96.4309 9.60505 106 21.4091 106H85.3082C97.114 106 106.717 96.4291 106.717 84.6671C106.717 78.9575 104.445 73.7759 100.763 69.9479C109.502 66.064 115.62 57.3517 115.62 47.216ZM85.31 99.0068H21.4109C13.4766 99.0068 7.02171 92.5749 7.02171 84.6688C7.02171 77.1842 12.8149 71.0287 20.1666 70.3974C20.1666 70.4253 20.1631 70.4516 20.1631 70.4795V75.5789C20.1631 77.5095 21.7338 79.0764 23.673 79.0764C25.6105 79.0764 27.183 77.5095 27.183 75.5789V70.4778C27.183 56.0926 38.9256 44.3918 53.3604 44.3918C67.7952 44.3918 79.5378 56.0926 79.5378 70.4778V71.9502C79.5413 71.9502 79.5483 71.9502 79.5519 71.9502C79.5519 71.994 79.5378 72.0359 79.5378 72.0797V75.5771C79.5378 77.5077 81.1103 79.0746 83.0478 79.0746C84.9871 79.0746 86.5578 77.5077 86.5578 75.5771V70.4778C86.5578 70.4498 86.5543 70.4236 86.5543 70.3956C93.9059 71.0269 99.6991 77.1825 99.6991 84.6671C99.6991 92.5749 93.2443 99.0068 85.31 99.0068ZM93.3004 64.9185C90.9628 63.976 88.4268 63.4164 85.7663 63.3587C84.0043 55.3914 79.3395 48.5136 72.9566 43.8322C74.5501 35.5624 81.8544 29.2914 90.6135 29.2914C100.533 29.2914 108.602 37.3339 108.602 47.216C108.6 56.1888 101.947 63.6192 93.3004 64.9185Z" fill="white"/>
<path d="M90.6118 17.1954C92.5493 17.1954 94.1218 15.6285 94.1218 13.6979V3.49748C94.1218 1.56687 92.5493 0 90.6118 0C88.6725 0 87.1018 1.56687 87.1018 3.49748V13.6979C87.1018 15.6303 88.6725 17.1954 90.6118 17.1954Z" fill="white"/>
<path d="M134.49 43.7186H124.251C122.314 43.7186 120.741 45.2837 120.741 47.216C120.741 49.1466 122.314 50.7135 124.251 50.7135H134.49C136.428 50.7135 138 49.1466 138 47.216C138 45.2837 136.428 43.7186 134.49 43.7186Z" fill="white"/>
<path d="M116.879 25.9898L124.118 18.7762C125.489 17.4105 125.485 15.1948 124.118 13.8308C122.747 12.4633 120.526 12.465 119.155 13.8308L111.916 21.0426C110.545 22.4084 110.545 24.6223 111.916 25.9898C113.286 27.3538 115.508 27.3538 116.879 25.9898Z" fill="white"/>
<path d="M116.882 68.4458C115.512 67.08 113.29 67.08 111.916 68.4458C110.548 69.8098 110.548 72.0272 111.916 73.3912L119.155 80.603C120.526 81.9688 122.751 81.9688 124.118 80.603C125.492 79.2373 125.489 77.0234 124.118 75.6576L116.882 68.4458Z" fill="white"/>
<path d="M64.3466 25.9898C65.7173 27.3556 67.9391 27.3538 69.3098 25.9898C70.6804 24.6223 70.6804 22.4101 69.3098 21.0426L62.0704 13.8291C60.6998 12.465 58.478 12.4633 57.1073 13.8291C55.7367 15.1931 55.7367 17.4105 57.1073 18.7745L64.3466 25.9898Z" fill="white"/>
</svg>
